<svg width="639" height="324" viewBox="0 0 639 324" fill="none" xmlns="http://www.w3.org/2000/svg">
<circle cx="226" cy="162" r="162" fill="#000928"/>
<path d="M407.022 143.004C406.938 143.368 406.849 143.755 406.756 144.166C406.672 144.577 406.593 144.978 406.518 145.37C406.443 145.753 406.383 146.107 406.336 146.434H404.418L404.32 146.28C404.404 145.944 404.511 145.589 404.642 145.216C404.773 144.843 404.913 144.465 405.062 144.082C405.221 143.699 405.375 143.34 405.524 143.004H407.022ZM403.83 143.004C403.746 143.368 403.657 143.755 403.564 144.166C403.48 144.577 403.401 144.978 403.326 145.37C403.251 145.753 403.191 146.107 403.144 146.434H401.226L401.128 146.28C401.212 145.944 401.319 145.589 401.45 145.216C401.581 144.843 401.721 144.465 401.87 144.082C402.029 143.699 402.183 143.34 402.332 143.004H403.83ZM415.888 144.95V142.948H407.404V144.95H410.484V153H412.822V144.95H415.888ZM418.541 153.154C420.011 153.154 421.355 152.412 421.901 150.998L420.025 150.396C419.815 151.04 419.269 151.376 418.569 151.376C417.715 151.376 417.113 150.802 416.959 149.794H421.957V149.206C421.957 147.12 420.739 145.468 418.499 145.468C416.371 145.468 414.803 147.12 414.803 149.304C414.803 151.6 416.315 153.154 418.541 153.154ZM418.471 147.204C419.297 147.204 419.731 147.764 419.745 148.422H417.029C417.253 147.61 417.785 147.204 418.471 147.204ZM422.975 153H425.215V148.786C425.215 147.918 425.817 147.484 426.433 147.484C427.161 147.484 427.469 148.03 427.469 148.772V153H429.709V148.128C429.709 146.518 428.757 145.468 427.245 145.468C426.307 145.468 425.621 145.888 425.215 146.364V145.622H422.975V153ZM433.223 153.14C434.189 153.14 434.917 152.846 435.407 152.342C435.785 152.972 436.653 153.21 437.941 153V151.348C437.507 151.404 437.367 151.292 437.367 150.914V148.072C437.367 146.35 436.177 145.468 434.245 145.468C432.369 145.468 431.207 146.532 430.885 147.834L433.027 148.156C433.167 147.554 433.503 147.274 434.147 147.274C434.875 147.274 435.169 147.624 435.169 148.17V148.296L433.517 148.576C431.963 148.8 430.675 149.416 430.675 150.942C430.675 152.244 431.739 153.14 433.223 153.14ZM435.169 150.354C435.169 151.11 434.483 151.502 433.741 151.502C433.209 151.502 432.859 151.25 432.859 150.788C432.859 150.27 433.293 150.074 433.881 149.976L435.169 149.738V150.354ZM438.93 153H441.17V148.786C441.17 147.918 441.772 147.484 442.388 147.484C443.116 147.484 443.424 148.03 443.424 148.772V153H445.664V148.128C445.664 146.518 444.712 145.468 443.2 145.468C442.262 145.468 441.576 145.888 441.17 146.364V145.622H438.93V153ZM447.344 151.026C447.344 152.538 448.142 153.07 449.738 153.07C450.27 153.07 450.69 153.028 451.082 152.972V151.138C450.83 151.166 450.704 151.18 450.438 151.18C449.878 151.18 449.556 151.068 449.556 150.452V147.47H450.998V145.622H449.556V143.578H447.344V145.622H446.406V147.47H447.344V151.026ZM454.044 151.292C454.87 152.44 456.69 153.154 458.356 153.154C460.582 153.154 462.416 151.936 462.416 149.836C462.416 147.624 460.456 147.218 458.874 146.882C457.586 146.602 456.9 146.462 456.9 145.762C456.9 145.118 457.516 144.726 458.398 144.726C459.462 144.726 460.288 145.23 460.904 146.014L462.318 144.474C461.576 143.536 460.204 142.794 458.468 142.794C456.326 142.794 454.618 144.026 454.618 146C454.618 148.016 456.242 148.506 457.726 148.828C459.252 149.164 460.106 149.276 460.106 150.074C460.106 150.83 459.42 151.222 458.454 151.222C457.376 151.222 456.27 150.69 455.486 149.682L454.044 151.292ZM465.291 149.318C465.291 148.058 465.879 147.316 466.817 147.316C467.545 147.316 467.979 147.848 468.133 148.534L470.065 147.75C469.743 146.532 468.595 145.468 466.803 145.468C464.619 145.468 463.079 147.036 463.079 149.318C463.079 151.586 464.619 153.154 466.803 153.154C468.609 153.154 469.771 152.076 470.079 150.844L468.133 150.088C467.979 150.788 467.545 151.306 466.817 151.306C465.879 151.306 465.291 150.564 465.291 149.318ZM477.908 149.318C477.908 147.022 476.382 145.468 474.212 145.468C472.028 145.468 470.516 147.022 470.516 149.318C470.516 151.614 472.028 153.154 474.212 153.154C476.382 153.154 477.908 151.614 477.908 149.318ZM472.742 149.318C472.742 148.03 473.316 147.302 474.212 147.302C475.108 147.302 475.682 148.03 475.682 149.318C475.682 150.606 475.108 151.334 474.212 151.334C473.316 151.334 472.742 150.606 472.742 149.318ZM483.595 145.608C483.455 145.594 483.315 145.58 483.105 145.58C482.251 145.58 481.537 146 481.201 146.588V145.622H478.961V153H481.201V149.374C481.201 148.31 481.971 147.708 482.937 147.708C483.189 147.708 483.357 147.722 483.595 147.764V145.608ZM487.653 153.154C489.123 153.154 490.467 152.412 491.013 150.998L489.137 150.396C488.927 151.04 488.381 151.376 487.681 151.376C486.827 151.376 486.225 150.802 486.071 149.794H491.069V149.206C491.069 147.12 489.851 145.468 487.611 145.468C485.483 145.468 483.915 147.12 483.915 149.304C483.915 151.6 485.427 153.154 487.653 153.154ZM487.583 147.204C488.409 147.204 488.843 147.764 488.857 148.422H486.141C486.365 147.61 486.897 147.204 487.583 147.204ZM497.42 143.158C497.336 143.485 497.229 143.839 497.098 144.222C496.968 144.595 496.828 144.973 496.678 145.356C496.529 145.729 496.375 146.089 496.216 146.434H494.718C494.812 146.061 494.9 145.673 494.984 145.272C495.068 144.861 495.148 144.46 495.222 144.068C495.297 143.676 495.358 143.321 495.404 143.004H497.322L497.42 143.158ZM494.228 143.158C494.144 143.485 494.037 143.839 493.906 144.222C493.776 144.595 493.636 144.973 493.486 145.356C493.337 145.729 493.183 146.089 493.024 146.434H491.526C491.592 146.154 491.657 145.865 491.722 145.566C491.788 145.267 491.848 144.969 491.904 144.67C491.97 144.362 492.026 144.068 492.072 143.788C492.128 143.508 492.175 143.247 492.212 143.004H494.13L494.228 143.158ZM508.096 149.318C508.096 147.022 506.57 145.468 504.4 145.468C502.216 145.468 500.704 147.022 500.704 149.318C500.704 151.614 502.216 153.154 504.4 153.154C506.57 153.154 508.096 151.614 508.096 149.318ZM502.93 149.318C502.93 148.03 503.504 147.302 504.4 147.302C505.296 147.302 505.87 148.03 505.87 149.318C505.87 150.606 505.296 151.334 504.4 151.334C503.504 151.334 502.93 150.606 502.93 149.318ZM513.783 145.608C513.643 145.594 513.503 145.58 513.293 145.58C512.439 145.58 511.725 146 511.389 146.588V145.622H509.149V153H511.389V149.374C511.389 148.31 512.159 147.708 513.125 147.708C513.377 147.708 513.545 147.722 513.783 147.764V145.608Z" fill="#DCE0F8"/>
<path d="M416.224 184H419.794C422.986 184 424.932 182.04 424.932 178.974C424.932 175.908 422.986 173.948 419.794 173.948H416.224V184ZM418.506 182.026V175.922H419.78C421.6 175.922 422.622 177.126 422.622 178.974C422.622 180.822 421.6 182.026 419.794 182.026H418.506ZM428.084 184.14C429.05 184.14 429.778 183.846 430.268 183.342C430.646 183.972 431.514 184.21 432.802 184V182.348C432.368 182.404 432.228 182.292 432.228 181.914V179.072C432.228 177.35 431.038 176.468 429.106 176.468C427.23 176.468 426.068 177.532 425.746 178.834L427.888 179.156C428.028 178.554 428.364 178.274 429.008 178.274C429.736 178.274 430.03 178.624 430.03 179.17V179.296L428.378 179.576C426.824 179.8 425.536 180.416 425.536 181.942C425.536 183.244 426.6 184.14 428.084 184.14ZM430.03 181.354C430.03 182.11 429.344 182.502 428.602 182.502C428.07 182.502 427.72 182.25 427.72 181.788C427.72 181.27 428.154 181.074 428.742 180.976L430.03 180.738V181.354ZM433.988 182.026C433.988 183.538 434.786 184.07 436.382 184.07C436.914 184.07 437.334 184.028 437.726 183.972V182.138C437.474 182.166 437.348 182.18 437.082 182.18C436.522 182.18 436.2 182.068 436.2 181.452V178.47H437.642V176.622H436.2V174.578H433.988V176.622H433.05V178.47H433.988V182.026ZM440.88 184.14C441.846 184.14 442.574 183.846 443.064 183.342C443.442 183.972 444.31 184.21 445.598 184V182.348C445.164 182.404 445.024 182.292 445.024 181.914V179.072C445.024 177.35 443.834 176.468 441.902 176.468C440.026 176.468 438.864 177.532 438.542 178.834L440.684 179.156C440.824 178.554 441.16 178.274 441.804 178.274C442.532 178.274 442.826 178.624 442.826 179.17V179.296L441.174 179.576C439.62 179.8 438.332 180.416 438.332 181.942C438.332 183.244 439.396 184.14 440.88 184.14ZM442.826 181.354C442.826 182.11 442.14 182.502 441.398 182.502C440.866 182.502 440.516 182.25 440.516 181.788C440.516 181.27 440.95 181.074 441.538 180.976L442.826 180.738V181.354ZM452.162 184.154C453.044 184.154 453.744 183.79 454.164 183.272V184H456.404V173.948H454.164V177.364C453.744 176.832 453.044 176.468 452.162 176.468C450.132 176.468 448.984 178.204 448.984 180.318C448.984 182.418 450.132 184.154 452.162 184.154ZM454.178 180.122V180.514C454.178 181.62 453.576 182.25 452.736 182.25C451.756 182.25 451.238 181.452 451.238 180.318C451.238 179.184 451.756 178.386 452.736 178.386C453.576 178.386 454.178 179.002 454.178 180.122ZM461.199 184.154C462.669 184.154 464.013 183.412 464.559 181.998L462.683 181.396C462.473 182.04 461.927 182.376 461.227 182.376C460.373 182.376 459.771 181.802 459.617 180.794H464.615V180.206C464.615 178.12 463.397 176.468 461.157 176.468C459.029 176.468 457.461 178.12 457.461 180.304C457.461 182.6 458.973 184.154 461.199 184.154ZM461.129 178.204C461.955 178.204 462.389 178.764 462.403 179.422H459.687C459.911 178.61 460.443 178.204 461.129 178.204ZM467.872 173.948H465.632V184H467.872V173.948ZM469.323 175.866H471.605V173.948H469.323V175.866ZM471.577 176.622H469.337V184H471.577V176.622ZM477.186 184L479.846 176.622H477.62L476.122 181.27L474.624 176.622H472.314L474.974 184H477.186ZM483.634 184.154C485.104 184.154 486.448 183.412 486.994 181.998L485.118 181.396C484.908 182.04 484.362 182.376 483.662 182.376C482.808 182.376 482.206 181.802 482.052 180.794H487.05V180.206C487.05 178.12 485.832 176.468 483.592 176.468C481.464 176.468 479.896 178.12 479.896 180.304C479.896 182.6 481.408 184.154 483.634 184.154ZM483.564 178.204C484.39 178.204 484.824 178.764 484.838 179.422H482.122C482.346 178.61 482.878 178.204 483.564 178.204ZM492.702 176.608C492.562 176.594 492.422 176.58 492.212 176.58C491.358 176.58 490.644 177 490.308 177.588V176.622H488.068V184H490.308V180.374C490.308 179.31 491.078 178.708 492.044 178.708C492.296 178.708 492.464 178.722 492.702 178.764V176.608ZM497.759 184.168L500.573 176.622H498.347L496.863 181.158L495.351 176.622H493.041L495.659 183.678L495.477 184.154C495.281 184.658 494.987 184.784 494.511 184.784C494.287 184.784 494.147 184.77 493.951 184.742V186.52C494.203 186.548 494.399 186.562 494.791 186.562C496.541 186.562 497.213 185.652 497.759 184.168Z" fill="#DCE0F8"/>
<rect x="210.007" y="44" width="116" height="50" rx="10" fill="#F9C40B"/>
<rect x="187" y="233.261" width="125.622" height="50" rx="10" fill="#F9C40B"/>
<rect x="251.755" y="109.247" width="120.424" height="50" rx="10" fill="#F9C40B"/>
<rect x="235.723" y="170.37" width="120.424" height="50" rx="10" fill="#F9C40B"/>
<rect x="541" y="135" width="98" height="55" rx="10" fill="#DCE0F8"/>
<path d="M229.808 69.092C229.808 66.882 231.03 65.387 232.759 65.387C233.968 65.387 234.839 66.089 235.177 67.272L236.36 66.882C235.814 65.27 234.54 64.282 232.759 64.282C230.341 64.282 228.56 66.245 228.56 69.092C228.56 71.939 230.341 73.902 232.759 73.902C234.54 73.902 235.814 72.914 236.36 71.302L235.177 70.912C234.839 72.095 233.968 72.797 232.759 72.797C231.03 72.797 229.808 71.302 229.808 69.092ZM241.146 66.934C241.029 66.921 240.86 66.908 240.678 66.908C239.755 66.908 239.092 67.428 238.793 68.117V66.96H237.623V73.759H238.793V70.041C238.793 68.845 239.586 68.065 240.574 68.065C240.795 68.065 240.951 68.078 241.146 68.117V66.934ZM244.873 73.902C246.225 73.902 247.252 73.161 247.668 71.952L246.641 71.588C246.433 72.394 245.783 72.888 244.873 72.888C243.69 72.888 242.871 71.978 242.806 70.548H247.72V70.158C247.72 68.273 246.719 66.83 244.821 66.83C242.975 66.83 241.688 68.338 241.688 70.366C241.688 72.459 242.988 73.902 244.873 73.902ZM244.808 67.831C245.991 67.831 246.511 68.689 246.537 69.651H242.871C243.079 68.494 243.82 67.831 244.808 67.831ZM251.672 73.902C252.621 73.902 253.375 73.447 253.778 72.771V73.759H254.948V64.425H253.778V67.948C253.375 67.285 252.621 66.83 251.672 66.83C249.787 66.83 248.708 68.429 248.708 70.366C248.708 72.29 249.787 73.902 251.672 73.902ZM253.804 70.132V70.613C253.804 72.173 252.842 72.875 251.88 72.875C250.606 72.875 249.891 71.822 249.891 70.366C249.891 68.897 250.606 67.857 251.88 67.857C252.842 67.857 253.804 68.546 253.804 70.132ZM256.83 65.777H258.104V64.425H256.83V65.777ZM258.052 66.96H256.882V73.759H258.052V66.96ZM260.187 72.134C260.187 73.434 260.85 73.824 262.007 73.824C262.397 73.824 262.735 73.785 263.034 73.72V72.719C262.761 72.784 262.566 72.797 262.293 72.797C261.695 72.797 261.344 72.667 261.344 71.952V67.961H262.891V66.96H261.344V64.971H260.187V66.96H259.134V67.961H260.187V72.134ZM273.47 64.425V68.39H268.465V64.425H267.217V73.759H268.465V69.482H273.47V73.759H274.718V64.425H273.47ZM276.673 65.777H277.947V64.425H276.673V65.777ZM277.895 66.96H276.725V73.759H277.895V66.96ZM279.094 72.316C279.614 73.369 280.849 73.902 282.084 73.902C283.54 73.902 284.723 73.044 284.723 71.744C284.723 70.262 283.384 70.028 282.214 69.755C281.265 69.547 280.667 69.43 280.667 68.793C280.667 68.182 281.187 67.792 281.967 67.792C282.825 67.792 283.462 68.221 283.813 68.897L284.645 68.234C284.242 67.428 283.241 66.83 282.019 66.83C280.576 66.83 279.523 67.675 279.523 68.884C279.523 70.275 280.693 70.522 281.811 70.769C282.929 71.003 283.579 71.107 283.579 71.848C283.579 72.589 282.877 72.927 282.084 72.927C281.2 72.927 280.368 72.446 280.004 71.653L279.094 72.316ZM286.352 72.134C286.352 73.434 287.015 73.824 288.172 73.824C288.562 73.824 288.9 73.785 289.199 73.72V72.719C288.926 72.784 288.731 72.797 288.458 72.797C287.86 72.797 287.509 72.667 287.509 71.952V67.961H289.056V66.96H287.509V64.971H286.352V66.96H285.299V67.961H286.352V72.134ZM296.4 70.366C296.4 68.26 295.1 66.83 293.241 66.83C291.382 66.83 290.082 68.26 290.082 70.366C290.082 72.472 291.382 73.902 293.241 73.902C295.1 73.902 296.4 72.472 296.4 70.366ZM291.265 70.366C291.265 68.806 292.045 67.818 293.241 67.818C294.437 67.818 295.217 68.806 295.217 70.366C295.217 71.913 294.437 72.901 293.241 72.901C292.045 72.901 291.265 71.913 291.265 70.366ZM301.411 66.934C301.294 66.921 301.125 66.908 300.943 66.908C300.02 66.908 299.357 67.428 299.058 68.117V66.96H297.888V73.759H299.058V70.041C299.058 68.845 299.851 68.065 300.839 68.065C301.06 68.065 301.216 68.078 301.411 68.117V66.934ZM305.298 74.5L308.223 66.96H307.001L305.116 72.16L303.205 66.96H301.97L304.492 73.512L304.167 74.318C303.894 74.994 303.621 75.176 303.114 75.176C302.919 75.176 302.776 75.163 302.555 75.111V76.125C302.763 76.164 302.906 76.177 303.192 76.177C304.375 76.177 304.908 75.527 305.298 74.5Z" fill="#000928"/>
<path d="M196.441 253.666H195.193V263H196.441V253.666ZM198.442 263H199.612V258.944C199.612 257.813 200.47 257.163 201.315 257.163C202.329 257.163 202.732 257.878 202.732 258.827V263H203.902V258.515C203.902 257.072 203.083 256.071 201.64 256.071C200.678 256.071 200.002 256.565 199.612 257.124V256.201H198.442V263ZM206.482 259.607C206.482 258.047 207.314 257.085 208.523 257.085C209.459 257.085 210.018 257.696 210.213 258.528L211.227 258.021C210.902 256.89 209.94 256.071 208.523 256.071C206.625 256.071 205.312 257.501 205.312 259.607C205.312 261.7 206.625 263.143 208.523 263.143C209.94 263.143 210.928 262.285 211.253 261.154L210.213 260.673C210.018 261.518 209.459 262.116 208.523 262.116C207.314 262.116 206.482 261.154 206.482 259.607ZM218.384 259.607C218.384 257.501 217.084 256.071 215.225 256.071C213.366 256.071 212.066 257.501 212.066 259.607C212.066 261.713 213.366 263.143 215.225 263.143C217.084 263.143 218.384 261.713 218.384 259.607ZM213.249 259.607C213.249 258.047 214.029 257.059 215.225 257.059C216.421 257.059 217.201 258.047 217.201 259.607C217.201 261.154 216.421 262.142 215.225 262.142C214.029 262.142 213.249 261.154 213.249 259.607ZM221.041 258.931C221.041 257.826 221.873 257.163 222.653 257.163C223.615 257.163 224.005 257.878 224.005 258.827V263H225.175V258.931C225.175 257.826 226.007 257.163 226.787 257.163C227.749 257.163 228.139 257.878 228.139 258.827V263H229.309V258.515C229.309 257.072 228.464 256.071 227.06 256.071C225.994 256.071 225.266 256.669 224.889 257.228C224.551 256.526 223.914 256.071 223.004 256.071C222.055 256.071 221.405 256.565 221.041 257.124V256.201H219.871V263H221.041V258.931ZM233.913 263.143C235.265 263.143 236.292 262.402 236.708 261.193L235.681 260.829C235.473 261.635 234.823 262.129 233.913 262.129C232.73 262.129 231.911 261.219 231.846 259.789H236.76V259.399C236.76 257.514 235.759 256.071 233.861 256.071C232.015 256.071 230.728 257.579 230.728 259.607C230.728 261.7 232.028 263.143 233.913 263.143ZM233.848 257.072C235.031 257.072 235.551 257.93 235.577 258.892H231.911C232.119 257.735 232.86 257.072 233.848 257.072ZM245.053 263L248.576 253.666H247.302L244.416 261.44L241.53 253.666H240.191L243.74 263H245.053ZM251.572 263.143C252.924 263.143 253.951 262.402 254.367 261.193L253.34 260.829C253.132 261.635 252.482 262.129 251.572 262.129C250.389 262.129 249.57 261.219 249.505 259.789H254.419V259.399C254.419 257.514 253.418 256.071 251.52 256.071C249.674 256.071 248.387 257.579 248.387 259.607C248.387 261.7 249.687 263.143 251.572 263.143ZM251.507 257.072C252.69 257.072 253.21 257.93 253.236 258.892H249.57C249.778 257.735 250.519 257.072 251.507 257.072ZM259.398 256.175C259.281 256.162 259.112 256.149 258.93 256.149C258.007 256.149 257.344 256.669 257.045 257.358V256.201H255.875V263H257.045V259.282C257.045 258.086 257.838 257.306 258.826 257.306C259.047 257.306 259.203 257.319 259.398 257.358V256.175ZM260.635 255.018H261.909V253.666H260.635V255.018ZM261.857 256.201H260.687V263H261.857V256.201ZM266.774 253.549C266.514 253.536 266.384 253.523 266.15 253.523C264.759 253.523 264.031 254.329 264.031 255.655V256.201H263.004V257.202H264.031V263H265.201V257.202H266.709V256.201H265.201V255.733C265.201 254.862 265.578 254.563 266.267 254.563C266.462 254.563 266.579 254.563 266.774 254.589V253.549ZM267.744 255.018H269.018V253.666H267.744V255.018ZM268.966 256.201H267.796V263H268.966V256.201ZM271.621 259.607C271.621 258.047 272.453 257.085 273.662 257.085C274.598 257.085 275.157 257.696 275.352 258.528L276.366 258.021C276.041 256.89 275.079 256.071 273.662 256.071C271.764 256.071 270.451 257.501 270.451 259.607C270.451 261.7 271.764 263.143 273.662 263.143C275.079 263.143 276.067 262.285 276.392 261.154L275.352 260.673C275.157 261.518 274.598 262.116 273.662 262.116C272.453 262.116 271.621 261.154 271.621 259.607ZM279.452 263.117C280.375 263.117 281.129 262.766 281.545 262.233C281.688 262.883 282.286 263.13 283.326 263V262.064C282.871 262.168 282.598 262.025 282.598 261.583V258.268C282.598 256.812 281.662 256.071 280.141 256.071C278.75 256.071 277.749 256.864 277.424 257.969L278.529 258.255C278.737 257.501 279.244 257.098 280.102 257.098C281.012 257.098 281.441 257.54 281.441 258.32V258.606L279.79 258.944C278.269 259.256 277.216 259.815 277.216 261.167C277.216 262.389 278.217 263.117 279.452 263.117ZM281.441 260.686C281.441 261.557 280.596 262.168 279.595 262.168C278.854 262.168 278.373 261.778 278.373 261.115C278.373 260.296 279.075 260.01 280.115 259.802L281.441 259.516V260.686ZM284.774 261.375C284.774 262.675 285.437 263.065 286.594 263.065C286.984 263.065 287.322 263.026 287.621 262.961V261.96C287.348 262.025 287.153 262.038 286.88 262.038C286.282 262.038 285.931 261.908 285.931 261.193V257.202H287.478V256.201H285.931V254.212H284.774V256.201H283.721V257.202H284.774V261.375ZM288.958 255.018H290.232V253.666H288.958V255.018ZM290.18 256.201H289.01V263H290.18V256.201ZM297.983 259.607C297.983 257.501 296.683 256.071 294.824 256.071C292.965 256.071 291.665 257.501 291.665 259.607C291.665 261.713 292.965 263.143 294.824 263.143C296.683 263.143 297.983 261.713 297.983 259.607ZM292.848 259.607C292.848 258.047 293.628 257.059 294.824 257.059C296.02 257.059 296.8 258.047 296.8 259.607C296.8 261.154 296.02 262.142 294.824 262.142C293.628 262.142 292.848 261.154 292.848 259.607ZM299.471 263H300.641V258.944C300.641 257.813 301.499 257.163 302.344 257.163C303.358 257.163 303.761 257.878 303.761 258.827V263H304.931V258.515C304.931 257.072 304.112 256.071 302.669 256.071C301.707 256.071 301.031 256.565 300.641 257.124V256.201H299.471V263Z" fill="#000928"/>
<path d="M265.541 130.569V139.903H271.638V138.811H266.776V135.626H270.897V134.534H266.776V131.661H271.638V130.569H265.541ZM275.866 139.903L278.414 133.104H277.192L275.307 138.473L273.396 133.104H272.161L274.709 139.903H275.866ZM279.504 131.921H280.778V130.569H279.504V131.921ZM280.726 133.104H279.556V139.903H280.726V133.104ZM283.381 136.51C283.381 134.95 284.213 133.988 285.422 133.988C286.358 133.988 286.917 134.599 287.112 135.431L288.126 134.924C287.801 133.793 286.839 132.974 285.422 132.974C283.524 132.974 282.211 134.404 282.211 136.51C282.211 138.603 283.524 140.046 285.422 140.046C286.839 140.046 287.827 139.188 288.152 138.057L287.112 137.576C286.917 138.421 286.358 139.019 285.422 139.019C284.213 139.019 283.381 138.057 283.381 136.51ZM289.615 138.278C289.615 139.578 290.278 139.968 291.435 139.968C291.825 139.968 292.163 139.929 292.462 139.864V138.863C292.189 138.928 291.994 138.941 291.721 138.941C291.123 138.941 290.772 138.811 290.772 138.096V134.105H292.319V133.104H290.772V131.115H289.615V133.104H288.562V134.105H289.615V138.278ZM293.799 131.921H295.073V130.569H293.799V131.921ZM295.021 133.104H293.851V139.903H295.021V133.104ZM302.824 136.51C302.824 134.404 301.524 132.974 299.665 132.974C297.806 132.974 296.506 134.404 296.506 136.51C296.506 138.616 297.806 140.046 299.665 140.046C301.524 140.046 302.824 138.616 302.824 136.51ZM297.689 136.51C297.689 134.95 298.469 133.962 299.665 133.962C300.861 133.962 301.641 134.95 301.641 136.51C301.641 138.057 300.861 139.045 299.665 139.045C298.469 139.045 297.689 138.057 297.689 136.51ZM304.312 139.903H305.482V135.847C305.482 134.716 306.34 134.066 307.185 134.066C308.199 134.066 308.602 134.781 308.602 135.73V139.903H309.772V135.418C309.772 133.975 308.953 132.974 307.51 132.974C306.548 132.974 305.872 133.468 305.482 134.027V133.104H304.312V139.903ZM315.692 135.99H317.499L320.008 139.903H321.438L318.851 135.925C320.333 135.678 321.243 134.768 321.243 133.273C321.243 131.492 319.982 130.569 318.006 130.569H314.444V139.903H315.692V135.99ZM315.692 134.911V131.648H317.941C319.267 131.648 320.008 132.22 320.008 133.273C320.008 134.326 319.267 134.911 317.941 134.911H315.692ZM325.412 140.046C326.764 140.046 327.791 139.305 328.207 138.096L327.18 137.732C326.972 138.538 326.322 139.032 325.412 139.032C324.229 139.032 323.41 138.122 323.345 136.692H328.259V136.302C328.259 134.417 327.258 132.974 325.36 132.974C323.514 132.974 322.227 134.482 322.227 136.51C322.227 138.603 323.527 140.046 325.412 140.046ZM325.347 133.975C326.53 133.975 327.05 134.833 327.076 135.795H323.41C323.618 134.638 324.359 133.975 325.347 133.975ZM330.417 136.51C330.417 134.95 331.249 133.988 332.458 133.988C333.394 133.988 333.953 134.599 334.148 135.431L335.162 134.924C334.837 133.793 333.875 132.974 332.458 132.974C330.56 132.974 329.247 134.404 329.247 136.51C329.247 138.603 330.56 140.046 332.458 140.046C333.875 140.046 334.863 139.188 335.188 138.057L334.148 137.576C333.953 138.421 333.394 139.019 332.458 139.019C331.249 139.019 330.417 138.057 330.417 136.51ZM342.319 136.51C342.319 134.404 341.019 132.974 339.16 132.974C337.301 132.974 336.001 134.404 336.001 136.51C336.001 138.616 337.301 140.046 339.16 140.046C341.019 140.046 342.319 138.616 342.319 136.51ZM337.184 136.51C337.184 134.95 337.964 133.962 339.16 133.962C340.356 133.962 341.136 134.95 341.136 136.51C341.136 138.057 340.356 139.045 339.16 139.045C337.964 139.045 337.184 138.057 337.184 136.51ZM347.33 133.078C347.213 133.065 347.044 133.052 346.862 133.052C345.939 133.052 345.276 133.572 344.977 134.261V133.104H343.807V139.903H344.977V136.185C344.977 134.989 345.77 134.209 346.758 134.209C346.979 134.209 347.135 134.222 347.33 134.261V133.078ZM350.886 140.046C351.835 140.046 352.589 139.591 352.992 138.915V139.903H354.162V130.569H352.992V134.092C352.589 133.429 351.835 132.974 350.886 132.974C349.001 132.974 347.922 134.573 347.922 136.51C347.922 138.434 349.001 140.046 350.886 140.046ZM353.018 136.276V136.757C353.018 138.317 352.056 139.019 351.094 139.019C349.82 139.019 349.105 137.966 349.105 136.51C349.105 135.041 349.82 134.001 351.094 134.001C352.056 134.001 353.018 134.69 353.018 136.276ZM355.342 138.46C355.862 139.513 357.097 140.046 358.332 140.046C359.788 140.046 360.971 139.188 360.971 137.888C360.971 136.406 359.632 136.172 358.462 135.899C357.513 135.691 356.915 135.574 356.915 134.937C356.915 134.326 357.435 133.936 358.215 133.936C359.073 133.936 359.71 134.365 360.061 135.041L360.893 134.378C360.49 133.572 359.489 132.974 358.267 132.974C356.824 132.974 355.771 133.819 355.771 135.028C355.771 136.419 356.941 136.666 358.059 136.913C359.177 137.147 359.827 137.251 359.827 137.992C359.827 138.733 359.125 139.071 358.332 139.071C357.448 139.071 356.616 138.59 356.252 137.797L355.342 138.46Z" fill="#000928"/>
<path d="M248.196 195.832C248.196 193.622 249.418 192.127 251.147 192.127C252.356 192.127 253.227 192.829 253.565 194.012L254.748 193.622C254.202 192.01 252.928 191.022 251.147 191.022C248.729 191.022 246.948 192.985 246.948 195.832C246.948 198.679 248.729 200.642 251.147 200.642C252.928 200.642 254.202 199.654 254.748 198.042L253.565 197.652C253.227 198.835 252.356 199.537 251.147 199.537C249.418 199.537 248.196 198.042 248.196 195.832ZM259.534 193.674C259.417 193.661 259.248 193.648 259.066 193.648C258.143 193.648 257.48 194.168 257.181 194.857V193.7H256.011V200.499H257.181V196.781C257.181 195.585 257.974 194.805 258.962 194.805C259.183 194.805 259.339 194.818 259.534 194.857V193.674ZM260.771 192.517H262.045V191.165H260.771V192.517ZM261.993 193.7H260.823V200.499H261.993V193.7ZM265.116 196.43C265.116 195.325 265.948 194.662 266.728 194.662C267.69 194.662 268.08 195.377 268.08 196.326V200.499H269.25V196.43C269.25 195.325 270.082 194.662 270.862 194.662C271.824 194.662 272.214 195.377 272.214 196.326V200.499H273.384V196.014C273.384 194.571 272.539 193.57 271.135 193.57C270.069 193.57 269.341 194.168 268.964 194.727C268.626 194.025 267.989 193.57 267.079 193.57C266.13 193.57 265.48 194.064 265.116 194.623V193.7H263.946V200.499H265.116V196.43ZM275.218 192.517H276.492V191.165H275.218V192.517ZM276.44 193.7H275.27V200.499H276.44V193.7ZM278.393 200.499H279.563V196.443C279.563 195.312 280.421 194.662 281.266 194.662C282.28 194.662 282.683 195.377 282.683 196.326V200.499H283.853V196.014C283.853 194.571 283.034 193.57 281.591 193.57C280.629 193.57 279.953 194.064 279.563 194.623V193.7H278.393V200.499ZM287.434 200.616C288.357 200.616 289.111 200.265 289.527 199.732C289.67 200.382 290.268 200.629 291.308 200.499V199.563C290.853 199.667 290.58 199.524 290.58 199.082V195.767C290.58 194.311 289.644 193.57 288.123 193.57C286.732 193.57 285.731 194.363 285.406 195.468L286.511 195.754C286.719 195 287.226 194.597 288.084 194.597C288.994 194.597 289.423 195.039 289.423 195.819V196.105L287.772 196.443C286.251 196.755 285.198 197.314 285.198 198.666C285.198 199.888 286.199 200.616 287.434 200.616ZM289.423 198.185C289.423 199.056 288.578 199.667 287.577 199.667C286.836 199.667 286.355 199.277 286.355 198.614C286.355 197.795 287.057 197.509 288.097 197.301L289.423 197.015V198.185ZM293.744 191.165H292.574V200.499H293.744V191.165ZM299.739 196.586H301.546L304.055 200.499H305.485L302.898 196.521C304.38 196.274 305.29 195.364 305.29 193.869C305.29 192.088 304.029 191.165 302.053 191.165H298.491V200.499H299.739V196.586ZM299.739 195.507V192.244H301.988C303.314 192.244 304.055 192.816 304.055 193.869C304.055 194.922 303.314 195.507 301.988 195.507H299.739ZM309.459 200.642C310.811 200.642 311.838 199.901 312.254 198.692L311.227 198.328C311.019 199.134 310.369 199.628 309.459 199.628C308.276 199.628 307.457 198.718 307.392 197.288H312.306V196.898C312.306 195.013 311.305 193.57 309.407 193.57C307.561 193.57 306.274 195.078 306.274 197.106C306.274 199.199 307.574 200.642 309.459 200.642ZM309.394 194.571C310.577 194.571 311.097 195.429 311.123 196.391H307.457C307.665 195.234 308.406 194.571 309.394 194.571ZM314.464 197.106C314.464 195.546 315.296 194.584 316.505 194.584C317.441 194.584 318 195.195 318.195 196.027L319.209 195.52C318.884 194.389 317.922 193.57 316.505 193.57C314.607 193.57 313.294 195 313.294 197.106C313.294 199.199 314.607 200.642 316.505 200.642C317.922 200.642 318.91 199.784 319.235 198.653L318.195 198.172C318 199.017 317.441 199.615 316.505 199.615C315.296 199.615 314.464 198.653 314.464 197.106ZM326.366 197.106C326.366 195 325.066 193.57 323.207 193.57C321.348 193.57 320.048 195 320.048 197.106C320.048 199.212 321.348 200.642 323.207 200.642C325.066 200.642 326.366 199.212 326.366 197.106ZM321.231 197.106C321.231 195.546 322.011 194.558 323.207 194.558C324.403 194.558 325.183 195.546 325.183 197.106C325.183 198.653 324.403 199.641 323.207 199.641C322.011 199.641 321.231 198.653 321.231 197.106ZM331.377 193.674C331.26 193.661 331.091 193.648 330.909 193.648C329.986 193.648 329.323 194.168 329.024 194.857V193.7H327.854V200.499H329.024V196.781C329.024 195.585 329.817 194.805 330.805 194.805C331.026 194.805 331.182 194.818 331.377 194.857V193.674ZM334.933 200.642C335.882 200.642 336.636 200.187 337.039 199.511V200.499H338.209V191.165H337.039V194.688C336.636 194.025 335.882 193.57 334.933 193.57C333.048 193.57 331.969 195.169 331.969 197.106C331.969 199.03 333.048 200.642 334.933 200.642ZM337.065 196.872V197.353C337.065 198.913 336.103 199.615 335.141 199.615C333.867 199.615 333.152 198.562 333.152 197.106C333.152 195.637 333.867 194.597 335.141 194.597C336.103 194.597 337.065 195.286 337.065 196.872ZM339.389 199.056C339.909 200.109 341.144 200.642 342.379 200.642C343.835 200.642 345.018 199.784 345.018 198.484C345.018 197.002 343.679 196.768 342.509 196.495C341.56 196.287 340.962 196.17 340.962 195.533C340.962 194.922 341.482 194.532 342.262 194.532C343.12 194.532 343.757 194.961 344.108 195.637L344.94 194.974C344.537 194.168 343.536 193.57 342.314 193.57C340.871 193.57 339.818 194.415 339.818 195.624C339.818 197.015 340.988 197.262 342.106 197.509C343.224 197.743 343.874 197.847 343.874 198.588C343.874 199.329 343.172 199.667 342.379 199.667C341.495 199.667 340.663 199.186 340.299 198.393L339.389 199.056Z" fill="#000928"/>
<path d="M559.798 167H566.63V164.998H562.136V156.948H559.798V167ZM569.744 167.14C570.71 167.14 571.438 166.846 571.928 166.342C572.306 166.972 573.174 167.21 574.462 167V165.348C574.028 165.404 573.888 165.292 573.888 164.914V162.072C573.888 160.35 572.698 159.468 570.766 159.468C568.89 159.468 567.728 160.532 567.406 161.834L569.548 162.156C569.688 161.554 570.024 161.274 570.668 161.274C571.396 161.274 571.69 161.624 571.69 162.17V162.296L570.038 162.576C568.484 162.8 567.196 163.416 567.196 164.942C567.196 166.244 568.26 167.14 569.744 167.14ZM571.69 164.354C571.69 165.11 571.004 165.502 570.262 165.502C569.73 165.502 569.38 165.25 569.38 164.788C569.38 164.27 569.814 164.074 570.402 163.976L571.69 163.738V164.354ZM575.451 167H577.691V162.786C577.691 161.918 578.293 161.484 578.909 161.484C579.637 161.484 579.945 162.03 579.945 162.772V167H582.185V162.128C582.185 160.518 581.233 159.468 579.721 159.468C578.783 159.468 578.097 159.888 577.691 160.364V159.622H575.451V167ZM586.399 167.154C587.281 167.154 587.981 166.79 588.401 166.272V167H590.641V156.948H588.401V160.364C587.981 159.832 587.281 159.468 586.399 159.468C584.369 159.468 583.221 161.204 583.221 163.318C583.221 165.418 584.369 167.154 586.399 167.154ZM588.415 163.122V163.514C588.415 164.62 587.813 165.25 586.973 165.25C585.993 165.25 585.475 164.452 585.475 163.318C585.475 162.184 585.993 161.386 586.973 161.386C587.813 161.386 588.415 162.002 588.415 163.122ZM594.343 156.948H592.103V167H594.343V156.948ZM602.794 163.318C602.794 161.022 601.268 159.468 599.098 159.468C596.914 159.468 595.402 161.022 595.402 163.318C595.402 165.614 596.914 167.154 599.098 167.154C601.268 167.154 602.794 165.614 602.794 163.318ZM597.628 163.318C597.628 162.03 598.202 161.302 599.098 161.302C599.994 161.302 600.568 162.03 600.568 163.318C600.568 164.606 599.994 165.334 599.098 165.334C598.202 165.334 597.628 164.606 597.628 163.318ZM608.481 159.608C608.341 159.594 608.201 159.58 607.991 159.58C607.137 159.58 606.423 160 606.087 160.588V159.622H603.847V167H606.087V163.374C606.087 162.31 606.857 161.708 607.823 161.708C608.075 161.708 608.243 161.722 608.481 161.764V159.608ZM612.034 167.154C612.916 167.154 613.616 166.79 614.036 166.272V167H616.276V156.948H614.036V160.364C613.616 159.832 612.916 159.468 612.034 159.468C610.004 159.468 608.856 161.204 608.856 163.318C608.856 165.418 610.004 167.154 612.034 167.154ZM614.05 163.122V163.514C614.05 164.62 613.448 165.25 612.608 165.25C611.628 165.25 611.11 164.452 611.11 163.318C611.11 162.184 611.628 161.386 612.608 161.386C613.448 161.386 614.05 162.002 614.05 163.122Z" fill="#000928"/>
<path d="M534.707 164.707C535.098 164.317 535.098 163.683 534.707 163.293L528.343 156.929C527.953 156.538 527.319 156.538 526.929 156.929C526.538 157.319 526.538 157.953 526.929 158.343L532.586 164L526.929 169.657C526.538 170.047 526.538 170.681 526.929 171.071C527.319 171.462 527.953 171.462 528.343 171.071L534.707 164.707ZM388 165L534 165L534 163L388 163L388 165Z" fill="#DCE0F8"/>
<rect y="135" width="206" height="55" rx="10" fill="#DCE0F8"/>
<path d="M25.694 158.95V156.948H17.21V158.95H20.29V167H22.628V158.95H25.694ZM28.3471 167.154C29.8171 167.154 31.1611 166.412 31.7071 164.998L29.8311 164.396C29.6211 165.04 29.0751 165.376 28.3751 165.376C27.5211 165.376 26.9191 164.802 26.7651 163.794H31.7631V163.206C31.7631 161.12 30.5451 159.468 28.3051 159.468C26.1771 159.468 24.6091 161.12 24.6091 163.304C24.6091 165.6 26.1211 167.154 28.3471 167.154ZM28.2771 161.204C29.1031 161.204 29.5371 161.764 29.5511 162.422H26.8351C27.0591 161.61 27.5911 161.204 28.2771 161.204ZM32.7807 167H35.0207V162.786C35.0207 161.918 35.6227 161.484 36.2387 161.484C36.9667 161.484 37.2747 162.03 37.2747 162.772V167H39.5147V162.128C39.5147 160.518 38.5627 159.468 37.0507 159.468C36.1127 159.468 35.4267 159.888 35.0207 160.364V159.622H32.7807V167ZM43.0288 167.14C43.9948 167.14 44.7228 166.846 45.2128 166.342C45.5908 166.972 46.4588 167.21 47.7468 167V165.348C47.3128 165.404 47.1728 165.292 47.1728 164.914V162.072C47.1728 160.35 45.9828 159.468 44.0508 159.468C42.1748 159.468 41.0128 160.532 40.6908 161.834L42.8328 162.156C42.9728 161.554 43.3088 161.274 43.9528 161.274C44.6808 161.274 44.9748 161.624 44.9748 162.17V162.296L43.3228 162.576C41.7688 162.8 40.4808 163.416 40.4808 164.942C40.4808 166.244 41.5448 167.14 43.0288 167.14ZM44.9748 164.354C44.9748 165.11 44.2888 165.502 43.5468 165.502C43.0148 165.502 42.6648 165.25 42.6648 164.788C42.6648 164.27 43.0988 164.074 43.6868 163.976L44.9748 163.738V164.354ZM48.7358 167H50.9758V162.786C50.9758 161.918 51.5778 161.484 52.1938 161.484C52.9218 161.484 53.2298 162.03 53.2298 162.772V167H55.4698V162.128C55.4698 160.518 54.5178 159.468 53.0058 159.468C52.0678 159.468 51.3818 159.888 50.9758 160.364V159.622H48.7358V167ZM57.1499 165.026C57.1499 166.538 57.9479 167.07 59.5439 167.07C60.0759 167.07 60.4959 167.028 60.8879 166.972V165.138C60.6359 165.166 60.5099 165.18 60.2439 165.18C59.6839 165.18 59.3619 165.068 59.3619 164.452V161.47H60.8039V159.622H59.3619V157.578H57.1499V159.622H56.2119V161.47H57.1499V165.026ZM64.0736 165.922C64.7596 166.72 66.2156 167.154 67.5036 167.154C69.3796 167.154 70.8636 166.216 70.8636 164.606C70.8636 162.94 69.3796 162.618 68.0496 162.352C67.1536 162.184 66.7196 162.128 66.7196 161.722C66.7196 161.386 67.0696 161.176 67.6156 161.176C68.3436 161.176 69.0716 161.498 69.6316 162.086L70.7516 160.644C70.1356 159.972 68.9596 159.468 67.6296 159.468C65.8096 159.468 64.4796 160.462 64.4796 161.96C64.4796 163.556 65.7816 163.878 66.9996 164.116C68.1756 164.326 68.6656 164.382 68.6656 164.872C68.6656 165.264 68.1756 165.46 67.5876 165.46C66.7896 165.46 65.8376 165.068 65.2356 164.41L64.0736 165.922ZM73.6746 163.318C73.6746 162.058 74.2626 161.316 75.2006 161.316C75.9286 161.316 76.3626 161.848 76.5166 162.534L78.4486 161.75C78.1266 160.532 76.9786 159.468 75.1866 159.468C73.0026 159.468 71.4626 161.036 71.4626 163.318C71.4626 165.586 73.0026 167.154 75.1866 167.154C76.9926 167.154 78.1546 166.076 78.4626 164.844L76.5166 164.088C76.3626 164.788 75.9286 165.306 75.2006 165.306C74.2626 165.306 73.6746 164.564 73.6746 163.318ZM83.9401 159.608C83.8001 159.594 83.6601 159.58 83.4501 159.58C82.5961 159.58 81.8821 160 81.5461 160.588V159.622H79.3061V167H81.5461V163.374C81.5461 162.31 82.3161 161.708 83.2821 161.708C83.5341 161.708 83.7021 161.722 83.9401 161.764V159.608ZM87.9975 167.154C89.4675 167.154 90.8115 166.412 91.3575 164.998L89.4815 164.396C89.2715 165.04 88.7255 165.376 88.0255 165.376C87.1715 165.376 86.5695 164.802 86.4155 163.794H91.4135V163.206C91.4135 161.12 90.1955 159.468 87.9555 159.468C85.8275 159.468 84.2595 161.12 84.2595 163.304C84.2595 165.6 85.7715 167.154 87.9975 167.154ZM87.9275 161.204C88.7535 161.204 89.1875 161.764 89.2015 162.422H86.4855C86.7095 161.61 87.2415 161.204 87.9275 161.204ZM95.7905 167.154C97.2605 167.154 98.6045 166.412 99.1505 164.998L97.2745 164.396C97.0645 165.04 96.5185 165.376 95.8185 165.376C94.9645 165.376 94.3625 164.802 94.2085 163.794H99.2065V163.206C99.2065 161.12 97.9885 159.468 95.7485 159.468C93.6205 159.468 92.0525 161.12 92.0525 163.304C92.0525 165.6 93.5645 167.154 95.7905 167.154ZM95.7205 161.204C96.5465 161.204 96.9805 161.764 96.9945 162.422H94.2785C94.5025 161.61 95.0345 161.204 95.7205 161.204ZM100.224 167H102.464V162.786C102.464 161.918 103.066 161.484 103.682 161.484C104.41 161.484 104.718 162.03 104.718 162.772V167H106.958V162.128C106.958 160.518 106.006 159.468 104.494 159.468C103.556 159.468 102.87 159.888 102.464 160.364V159.622H100.224V167ZM108.372 158.866H110.654V156.948H108.372V158.866ZM110.626 159.622H108.386V167H110.626V159.622ZM112.091 167H114.331V162.786C114.331 161.918 114.933 161.484 115.549 161.484C116.277 161.484 116.585 162.03 116.585 162.772V167H118.825V162.128C118.825 160.518 117.873 159.468 116.361 159.468C115.423 159.468 114.737 159.888 114.331 160.364V159.622H112.091V167ZM127.309 166.118V159.622H125.055V160.35C124.705 159.86 123.949 159.468 123.067 159.468C121.051 159.468 119.889 161.106 119.889 163.122C119.889 165.138 121.051 166.762 123.067 166.762C123.949 166.762 124.705 166.384 125.055 165.894V166.37C125.055 167.462 124.411 167.924 123.501 167.924C122.759 167.924 122.227 167.546 122.045 166.916L119.917 167.42C120.309 168.862 121.597 169.618 123.431 169.618C125.699 169.618 127.309 168.4 127.309 166.118ZM125.083 163.01V163.234C125.083 164.312 124.481 164.914 123.641 164.914C122.689 164.914 122.171 164.2 122.171 163.108C122.171 162.016 122.689 161.316 123.641 161.316C124.481 161.316 125.083 161.918 125.083 163.01ZM130.902 165.922C131.588 166.72 133.044 167.154 134.332 167.154C136.208 167.154 137.692 166.216 137.692 164.606C137.692 162.94 136.208 162.618 134.878 162.352C133.982 162.184 133.548 162.128 133.548 161.722C133.548 161.386 133.898 161.176 134.444 161.176C135.172 161.176 135.9 161.498 136.46 162.086L137.58 160.644C136.964 159.972 135.788 159.468 134.458 159.468C132.638 159.468 131.308 160.462 131.308 161.96C131.308 163.556 132.61 163.878 133.828 164.116C135.004 164.326 135.494 164.382 135.494 164.872C135.494 165.264 135.004 165.46 134.416 165.46C133.618 165.46 132.666 165.068 132.064 164.41L130.902 165.922ZM142.029 167.154C143.499 167.154 144.843 166.412 145.389 164.998L143.513 164.396C143.303 165.04 142.757 165.376 142.057 165.376C141.203 165.376 140.601 164.802 140.447 163.794H145.445V163.206C145.445 161.12 144.227 159.468 141.987 159.468C139.859 159.468 138.291 161.12 138.291 163.304C138.291 165.6 139.803 167.154 142.029 167.154ZM141.959 161.204C142.785 161.204 143.219 161.764 143.233 162.422H140.517C140.741 161.61 141.273 161.204 141.959 161.204ZM151.096 159.608C150.956 159.594 150.816 159.58 150.606 159.58C149.752 159.58 149.038 160 148.702 160.588V159.622H146.462V167H148.702V163.374C148.702 162.31 149.472 161.708 150.438 161.708C150.69 161.708 150.858 161.722 151.096 161.764V159.608ZM156.308 167L158.968 159.622H156.742L155.244 164.27L153.746 159.622H151.436L154.096 167H156.308ZM159.683 158.866H161.965V156.948H159.683V158.866ZM161.937 159.622H159.697V167H161.937V159.622ZM165.208 163.318C165.208 162.058 165.796 161.316 166.734 161.316C167.462 161.316 167.896 161.848 168.05 162.534L169.982 161.75C169.66 160.532 168.512 159.468 166.72 159.468C164.536 159.468 162.996 161.036 162.996 163.318C162.996 165.586 164.536 167.154 166.72 167.154C168.526 167.154 169.688 166.076 169.996 164.844L168.05 164.088C167.896 164.788 167.462 165.306 166.734 165.306C165.796 165.306 165.208 164.564 165.208 163.318ZM174.171 167.154C175.641 167.154 176.985 166.412 177.531 164.998L175.655 164.396C175.445 165.04 174.899 165.376 174.199 165.376C173.345 165.376 172.743 164.802 172.589 163.794H177.587V163.206C177.587 161.12 176.369 159.468 174.129 159.468C172.001 159.468 170.433 161.12 170.433 163.304C170.433 165.6 171.945 167.154 174.171 167.154ZM174.101 161.204C174.927 161.204 175.361 161.764 175.375 162.422H172.659C172.883 161.61 173.415 161.204 174.101 161.204ZM177.96 165.922C178.646 166.72 180.102 167.154 181.39 167.154C183.266 167.154 184.75 166.216 184.75 164.606C184.75 162.94 183.266 162.618 181.936 162.352C181.04 162.184 180.606 162.128 180.606 161.722C180.606 161.386 180.956 161.176 181.502 161.176C182.23 161.176 182.958 161.498 183.518 162.086L184.638 160.644C184.022 159.972 182.846 159.468 181.516 159.468C179.696 159.468 178.366 160.462 178.366 161.96C178.366 163.556 179.668 163.878 180.886 164.116C182.062 164.326 182.552 164.382 182.552 164.872C182.552 165.264 182.062 165.46 181.474 165.46C180.676 165.46 179.724 165.068 179.122 164.41L177.96 165.922Z" fill="#000928"/>
</svg>
