<svg width="349" height="786" viewBox="0 0 349 786" fill="none" xmlns="http://www.w3.org/2000/svg">
<g id="figure 01_es">
<circle id="Ellipse 41" cx="174.5" cy="201.5" r="174.5" fill="#282400"/>
<circle id="Ellipse 42" cx="174.5" cy="574.5" r="174.5" fill="#282400"/>
<g id="lines">
<path id="Vector 21" d="M111 487L96 241" stroke="#DCE0F8" stroke-dasharray="2 2"/>
<path id="Vector 22" d="M252 472L126 181.001" stroke="#DCE0F8" stroke-dasharray="2 2"/>
<path id="Vector 26" d="M251 554L122 181.001" stroke="#DCE0F8" stroke-dasharray="2 2"/>
<path id="Vector 24" d="M198 641L247 261" stroke="#DCE0F8" stroke-dasharray="2 2"/>
<path id="Vector 25" d="M79 571L111 240" stroke="#DCE0F8" stroke-dasharray="2 2"/>
<path id="Vector 27" d="M71 571L73 121" stroke="#DCE0F8" stroke-dasharray="2 2"/>
<path id="Vector 23" d="M79 571L269 205" stroke="#DCE0F8" stroke-dasharray="2 2"/>
<path id="Vector 30" d="M89 585L259 135" stroke="#DCE0F8" stroke-dasharray="2 2"/>
<path id="Vector 28" d="M245 554L72 121" stroke="#DCE0F8" stroke-dasharray="2 2"/>
<path id="Vector 29" d="M251 512L78 79" stroke="#DCE0F8" stroke-dasharray="2 2"/>
</g>
<g id="landlord">
<g id="willingness to pay">
<rect id="Rectangle 27" x="45.0557" y="488.835" width="122.293" height="52.7125" rx="10.5425" fill="#F9C40B"/>
<text id="&#194;&#191;Disposici&#195;&#179;n a pagar alquileres?" transform="translate(50 498)" fill="#282400" xml:space="preserve" style="white-space: pre" font-family="Sohne" font-size="12" letter-spacing="0em"><tspan x="15.5215" y="12.336">&#xbf;Disposici&#xf3;n a </tspan><tspan x="8.55469" y="27.336">pagar alquileres?</tspan></text>
</g>
<g id="ability to pay">
<rect id="Rectangle 28" x="190" y="554" width="122.293" height="52.7125" rx="10.5425" fill="#F9C40B"/>
<text id="&#194;&#191;Capacidad de pago?" transform="translate(202.364 564)" fill="#282400" xml:space="preserve" style="white-space: pre" font-family="Sohne" font-size="13.7052" letter-spacing="0em"><tspan x="4.1058" y="14.0232">&#xbf;Capacidad de </tspan><tspan x="30.4456" y="31.0232">pago?</tspan></text>
</g>
<g id="rent_to_income_ratio">
<rect id="Rectangle 29" x="191" y="472" width="122.293" height="52.7125" rx="10.5425" fill="#F9C40B"/>
<text id="Relaci&#195;&#179;n alquiler-ingresos &#194;&#191;Relaci&#195;&#179;n?" transform="translate(193 483)" fill="#282400" xml:space="preserve" style="white-space: pre" font-family="Sohne" font-size="12" letter-spacing="0em"><tspan x="14.4766" y="12.336">Relaci&#xf3;n alquiler-</tspan><tspan x="8.3418" y="27.336">ingresos &#xbf;Relaci&#xf3;n?</tspan></text>
</g>
<g id="paying rents on time">
<rect id="Rectangle 29_2" x="12" y="571" width="122.293" height="52.7125" rx="10.5425" fill="#F9C40B"/>
<text id="&#194;&#191;Pagar los alquileres a tiempo?" transform="translate(21 584)" fill="#282400" xml:space="preserve" style="white-space: pre" font-family="Sohne" font-size="11" letter-spacing="0em"><tspan x="1.01123" y="11.433">&#xbf;Pagar los alquileres </tspan><tspan x="27.2383" y="25.433">a tiempo?</tspan></text>
</g>
<g id="threat to property?">
<rect id="Rectangle 30" x="134" y="641" width="122.293" height="52.7125" rx="10.5425" fill="#F9C40B"/>
<text id="&#194;&#191;Amenaza para la propiedad?" transform="translate(146 650)" fill="#282400" xml:space="preserve" style="white-space: pre" font-family="Sohne" font-size="13.7052" letter-spacing="0em"><tspan x="2.07143" y="14.0232">&#xbf;Amenaza para </tspan><tspan x="7.8801" y="31.0232">la propiedad?</tspan></text>
</g>
<g id="landlord_2">
<rect id="Rectangle 22" x="126" y="728" width="103.316" height="57.9837" rx="10.5425" fill="#DCE0F8"/>
<text id="Propietario" fill="#282400" xml:space="preserve" style="white-space: pre" font-family="Sohne" font-size="14.7595" font-weight="bold" letter-spacing="0em"><tspan x="140" y="763.448">Propietario</tspan></text>
</g>
</g>
<g id="tenant screening service">
<g id="credit history">
<rect id="Rectangle 23" x="61" y="128" width="122.293" height="52.7125" rx="10.5425" fill="#F9C40B"/>
<text id="Historial de cr&#195;&#169;dito" transform="translate(73.3635 137)" fill="#282400" xml:space="preserve" style="white-space: pre" font-family="Sohne" font-size="13.7052" letter-spacing="0em"><tspan x="14.184" y="14.0232">Historial de </tspan><tspan x="27.1732" y="31.0232">cr&#xe9;dito</tspan></text>
</g>
<g id="income verification">
<rect id="Rectangle 23_2" x="12" y="68" width="122.293" height="52.7125" rx="10.5425" fill="#F9C40B"/>
<text id="Ingresos Verificaci&#195;&#179;n" transform="translate(24 77)" fill="#282400" xml:space="preserve" style="white-space: pre" font-family="Sohne" font-size="13.7052" letter-spacing="0em"><tspan x="22.7297" y="14.0232">Ingresos </tspan><tspan x="12.7987" y="31.0232">Verificaci&#xf3;n</tspan></text>
</g>
<g id="employment history">
<rect id="Rectangle 24" x="198" y="82" width="122.293" height="52.7125" rx="10.5425" fill="#F9C40B"/>
<text id="Empleo &#226;&#128;&#168;Historia" transform="translate(210 91)" fill="#282400" xml:space="preserve" style="white-space: pre" font-family="Sohne" font-size="13.7052" letter-spacing="0em"><tspan x="24.3291" y="14.0232">Empleo &#x2028;</tspan><tspan x="25.0384" y="31.0232">Historia</tspan></text>
</g>
<g id="credit score">
<rect id="Rectangle 32" x="32" y="188" width="122.293" height="52.7125" rx="10.5425" fill="#F9C40B"/>
<text id="Puntuaci&#195;&#179;n de cr&#195;&#169;dito" transform="translate(44.3635 197.614)" fill="#282400" xml:space="preserve" style="white-space: pre" font-family="Sohne" font-size="13.7052" letter-spacing="0em"><tspan x="4.88877" y="14.0232">Puntuaci&#xf3;n de </tspan><tspan x="27.1732" y="31.0232">cr&#xe9;dito</tspan></text>
</g>
<g id="eviction records">
<rect id="Rectangle 24_2" x="197.94" y="149.622" width="126.956" height="52.7125" rx="10.5425" fill="#F9C40B"/>
<text id="Registros de desahucios" transform="translate(208.461 159.181)" fill="#282400" xml:space="preserve" style="white-space: pre" font-family="Sohne" font-size="13.7052" letter-spacing="0em"><tspan x="15.7795" y="14.0232">Registros de </tspan><tspan x="19.179" y="31.0232">desahucios</tspan></text>
</g>
<g id="criminal records">
<rect id="Rectangle 25" x="181.039" y="214.061" width="126.956" height="52.7125" rx="10.5425" fill="#F9C40B"/>
<text id="Antecedentes penales" fill="#282400" xml:space="preserve" style="white-space: pre" font-family="Sohne" font-size="13.7052" letter-spacing="0em"><tspan x="201.748" y="238.088">Antecedentes </tspan><tspan x="220.639" y="255.088">penales</tspan></text>
</g>
<g id="tenant screening services">
<rect id="Rectangle 21" x="61.528" width="217.175" height="57.9837" rx="10.5425" fill="#DCE0F8"/>
<text id="Servicio de selecci&#195;&#179;n de inquilinos" fill="#282400" xml:space="preserve" style="white-space: pre" font-family="Sohne" font-size="14.7595" font-weight="bold" letter-spacing="0em"><tspan x="87.9588" y="27.4481">Servicio de selecci&#xf3;n de </tspan><tspan x="136.532" y="46.4481">inquilinos</tspan></text>
</g>
</g>
</g>
</svg>
