<svg width="349" height="786" viewBox="0 0 349 786" fill="none" xmlns="http://www.w3.org/2000/svg">
<g id="figure_01_en">
<circle id="Ellipse 41" cx="174.5" cy="201.5" r="174.5" fill="#282400"/>
<circle id="Ellipse 42" cx="174.5" cy="574.5" r="174.5" fill="#282400"/>
<g id="lines">
<path id="Vector 21" d="M111 487L96 241" stroke="#DCE0F8" stroke-dasharray="2 2"/>
<path id="Vector 22" d="M252 472L126 181.001" stroke="#DCE0F8" stroke-dasharray="2 2"/>
<path id="Vector 26" d="M251 554L122 181.001" stroke="#DCE0F8" stroke-dasharray="2 2"/>
<path id="Vector 24" d="M198 641L247 261" stroke="#DCE0F8" stroke-dasharray="2 2"/>
<path id="Vector 25" d="M79 571L111 240" stroke="#DCE0F8" stroke-dasharray="2 2"/>
<path id="Vector 27" d="M71 571L73 121" stroke="#DCE0F8" stroke-dasharray="2 2"/>
<path id="Vector 23" d="M79 571L269 205" stroke="#DCE0F8" stroke-dasharray="2 2"/>
<path id="Vector 30" d="M89 585L259 135" stroke="#DCE0F8" stroke-dasharray="2 2"/>
<path id="Vector 28" d="M245 554L72 121" stroke="#DCE0F8" stroke-dasharray="2 2"/>
<path id="Vector 29" d="M251 512L78 79" stroke="#DCE0F8" stroke-dasharray="2 2"/>
</g>
<g id="landlord">
<g id="willingness to pay">
<rect id="Rectangle 27" x="45.0557" y="488.835" width="122.293" height="52.7125" rx="10.5425" fill="#F9C40B"/>
<text id="Willingness to Pay Rents?" transform="translate(57.4192 498)" fill="#282400" xml:space="preserve" style="white-space: pre" font-family="Sohne" font-size="13.7052" letter-spacing="0em"><tspan x="6.36102" y="14.0232">Willingness to </tspan><tspan x="15.8034" y="31.0232">Pay Rents?</tspan></text>
</g>
<g id="ability to pay">
<rect id="Rectangle 28" x="190" y="554" width="122.293" height="52.7125" rx="10.5425" fill="#F9C40B"/>
<text id="Ability to Pay?" transform="translate(202.364 571)" fill="#282400" xml:space="preserve" style="white-space: pre" font-family="Sohne" font-size="13.7052" letter-spacing="0em"><tspan x="6.2874" y="14.0232">Ability to Pay?</tspan></text>
</g>
<g id="rent_to_income_ratio">
<rect id="Rectangle 29" x="191" y="472" width="122.293" height="52.7125" rx="10.5425" fill="#F9C40B"/>
<text id="Rent-to-income Ratio?" transform="translate(203.364 481)" fill="#282400" xml:space="preserve" style="white-space: pre" font-family="Sohne" font-size="13.7052" letter-spacing="0em"><tspan x="0.92041" y="14.0232">Rent-to-income&#10;</tspan><tspan x="30.1779" y="31.0232">Ratio?</tspan></text>
</g>
<g id="paying rents on time">
<rect id="Rectangle 29_2" x="12" y="571" width="122.293" height="52.7125" rx="10.5425" fill="#F9C40B"/>
<text id="Paying Rents &#226;&#128;&#168;on Time?" transform="translate(24.3635 580.381)" fill="#282400" xml:space="preserve" style="white-space: pre" font-family="Sohne" font-size="13.7052" letter-spacing="0em"><tspan x="7.75295" y="14.0232">Paying Rents &#x2028;</tspan><tspan x="21.398" y="31.0232">on Time?</tspan></text>
</g>
<g id="threat to property?">
<rect id="Rectangle 30" x="134" y="641" width="122.293" height="52.7125" rx="10.5425" fill="#F9C40B"/>
<text id="Threat to &#226;&#128;&#168;Property?" transform="translate(146 650)" fill="#282400" xml:space="preserve" style="white-space: pre" font-family="Sohne" font-size="13.7052" letter-spacing="0em"><tspan x="19.8655" y="14.0232">Threat to &#x2028;</tspan><tspan x="19.464" y="31.0232">Property?</tspan></text>
</g>
<g id="landlord_2">
<rect id="Rectangle 22" x="126" y="728" width="103.316" height="57.9837" rx="10.5425" fill="#DCE0F8"/>
<text id="Landlord" fill="#282400" xml:space="preserve" style="white-space: pre" font-family="Sohne" font-size="14.7595" font-weight="bold" letter-spacing="0em"><tspan x="147.388" y="762.978">Landlord</tspan></text>
</g>
</g>
<g id="tenant screening service">
<g id="credit history">
<rect id="Rectangle 23" x="61" y="128" width="122.293" height="52.7125" rx="10.5425" fill="#F9C40B"/>
<text id="Credit History" transform="translate(73.3635 144.614)" fill="#282400" xml:space="preserve" style="white-space: pre" font-family="Sohne" font-size="13.7052" letter-spacing="0em"><tspan x="6.68892" y="14.0232">Credit History</tspan></text>
</g>
<g id="income verification">
<rect id="Rectangle 23_2" x="12" y="68" width="122.293" height="52.7125" rx="10.5425" fill="#F9C40B"/>
<text id="Income Verification" transform="translate(24 77)" fill="#282400" xml:space="preserve" style="white-space: pre" font-family="Sohne" font-size="13.7052" letter-spacing="0em"><tspan x="26.3166" y="14.0232">Income&#10;</tspan><tspan x="14.3111" y="31.0232">Verification</tspan></text>
</g>
<g id="employment history">
<rect id="Rectangle 24" x="198" y="82" width="122.293" height="52.7125" rx="10.5425" fill="#F9C40B"/>
<text id="Employment History" transform="translate(210 91)" fill="#282400" xml:space="preserve" style="white-space: pre" font-family="Sohne" font-size="13.7052" letter-spacing="0em"><tspan x="10.2357" y="14.0232">Employment&#10;</tspan><tspan x="26.7783" y="31.0232">History</tspan></text>
</g>
<g id="credit score">
<rect id="Rectangle 32" x="32" y="188" width="122.293" height="52.7125" rx="10.5425" fill="#F9C40B"/>
<text id="Credit Score" transform="translate(44.3635 204.614)" fill="#282400" xml:space="preserve" style="white-space: pre" font-family="Sohne" font-size="13.7052" letter-spacing="0em"><tspan x="11.3399" y="14.0232">Credit Score</tspan></text>
</g>
<g id="eviction records">
<rect id="Rectangle 24_2" x="197.94" y="149.622" width="126.956" height="52.7125" rx="10.5425" fill="#F9C40B"/>
<text id="Eviction Records" transform="translate(208.461 167.181)" fill="#282400" xml:space="preserve" style="white-space: pre" font-family="Sohne" font-size="13.7052" letter-spacing="0em"><tspan x="2.9308" y="14.0232">Eviction Records</tspan></text>
</g>
<g id="criminal records">
<rect id="Rectangle 25" x="181.039" y="214.061" width="126.956" height="52.7125" rx="10.5425" fill="#F9C40B"/>
<text id="Criminal Records" fill="#282400" xml:space="preserve" style="white-space: pre" font-family="Sohne" font-size="13.7052" letter-spacing="0em"><tspan x="192.366" y="245.088">Criminal Records</tspan></text>
</g>
<g id="tenant screening services">
<rect id="Rectangle 21" x="61.528" width="217.175" height="57.9837" rx="10.5425" fill="#DCE0F8"/>
<text id="Tenant Screening Service" fill="#282400" xml:space="preserve" style="white-space: pre" font-family="Sohne" font-size="14.7595" font-weight="bold" letter-spacing="0em"><tspan x="83.4185" y="33.4481">Tenant Screening Service</tspan></text>
</g>
</g>
</g>
</svg>
